<svg width="83" height="142" viewBox="0 0 83 142" fill="none" xmlns="http://www.w3.org/2000/svg" style="opacity: .4">
    <path fill-rule="evenodd" clip-rule="evenodd" d="M25.2015 1C25.2015 1 22.8299 2.325 21.09 2.325C19.35 2.325 17.3533 1.21797 16.8307 2.325C16.3081 3.43203 18.8391 11.5648 18.8391 15.3852C18.8391 19.2055 20.1932 26.5086 20.9806 26.5086C21.768 26.5086 23.8147 25.2852 25.2015 25.2852C26.5884 25.2852 28.0977 25.2852 29.5037 25.2852C30.9097 25.2852 28.6351 17.6266 27.9675 13.243C27.3 8.85938 26.6457 2.05703 26.6457 1.52852C26.6457 1 25.2015 1 25.2015 1Z" fill="#3D6415" stroke="#333333" stroke-width="0.8"/>
    <path fill-rule="evenodd" clip-rule="evenodd" d="M29.99 29C29.99 29 27.6184 30.325 25.8784 30.325C24.1385 30.325 22.1417 29.218 21.6192 30.325C21.0966 31.432 23.6276 39.5648 23.6276 43.3852C23.6276 47.2055 24.9816 54.5086 25.769 54.5086C26.5565 54.5086 28.6031 53.2852 29.99 53.2852C31.3769 53.2852 32.8861 53.2852 34.2921 53.2852C35.6981 53.2852 33.4235 45.6266 32.756 41.243C32.0885 36.8594 31.4342 30.057 31.4342 29.5285C31.4342 29 29.99 29 29.99 29Z" fill="#3D6415" stroke="#333333" stroke-width="0.8"/>
    <path fill-rule="evenodd" clip-rule="evenodd" d="M34.7785 57.8C34.7785 57.8 32.4068 59.125 30.6669 59.125C28.9269 59.125 26.9302 58.018 26.4076 59.125C25.885 60.232 28.416 68.3648 28.416 72.1851C28.416 76.0055 29.7701 83.3086 30.5575 83.3086C31.3449 83.3086 33.3916 82.0851 34.7785 82.0851C36.1653 82.0851 37.6746 82.0851 39.0806 82.0851C40.4866 82.0851 38.212 74.4265 37.5444 70.043C36.8769 65.6594 36.2226 58.857 36.2226 58.3285C36.2226 57.8 34.7785 57.8 34.7785 57.8Z" fill="#3D6415" stroke="#333333" stroke-width="0.8"/>
    <path fill-rule="evenodd" clip-rule="evenodd" d="M38.7688 86.6C38.7688 86.6 36.3972 87.925 34.6572 87.925C32.9173 87.925 30.9205 86.8179 30.398 87.925C29.8754 89.032 32.4064 97.1648 32.4064 100.985C32.4064 104.805 33.7604 112.109 34.5479 112.109C35.3353 112.109 37.3819 110.885 38.7688 110.885C40.1557 110.885 41.665 110.885 43.0709 110.885C44.4769 110.885 42.2023 103.227 41.5348 98.8429C40.8673 94.4594 40.213 87.657 40.213 87.1285C40.213 86.6 38.7688 86.6 38.7688 86.6Z" fill="#3D6415" stroke="#333333" stroke-width="0.8"/>
    <path fill-rule="evenodd" clip-rule="evenodd" d="M43.5573 115.4C43.5573 115.4 41.1856 116.725 39.4457 116.725C37.7057 116.725 35.709 115.618 35.1864 116.725C34.6638 117.832 37.1949 125.965 37.1949 129.785C37.1949 133.605 38.5489 140.909 39.3363 140.909C40.1237 140.909 42.1704 139.685 43.5573 139.685C44.9442 139.685 46.4534 139.685 47.8594 139.685C49.2654 139.685 46.9908 132.027 46.3233 127.643C45.6557 123.259 45.0014 116.457 45.0014 115.929C45.0014 115.4 43.5573 115.4 43.5573 115.4Z" fill="#3D6415" stroke="#333333" stroke-width="0.8"/>
    <path fill-rule="evenodd" clip-rule="evenodd" d="M63.7078 42.1965C63.7078 42.1965 83.2451 52.9996 82.1782 67.8C81.8952 71.7248 81.064 76.2562 78.791 80.918C72.6647 93.4826 60.2197 106.427 46.8258 105.96C28.4627 105.32 26.7808 91.3699 27.6217 85.9293C28.1755 82.3466 32.4484 77.0034 38.0412 76.5961C40.9415 76.3849 44.1436 77.1669 47.4786 80.918C49.9885 83.741 49.7641 87.2469 48.5249 89.8441C46.0413 95.0494 37.1437 96.2148 35.7568 90.398C34.799 86.3808 37.2662 84.3621 39.4245 84.3277C41.4725 84.2951 43.5079 86.1203 42.7205 87.5246C41.1033 90.409 41.1033 84.3801 38.8123 86.5965C36.5214 88.8129 38.7067 93.7297 44.3626 91.3027C50.0185 88.8758 45.7823 78.9805 39.4245 78.9805C36.9333 78.9805 31.4835 81.8031 30.7949 87.5246C29.9182 94.8095 37.3076 103.893 48.0031 100.692C57.7644 97.7709 63.0731 91.0112 61.8186 82.5801C61.5663 80.8843 59.3379 78.2418 59.3379 78.2418C59.3379 78.2418 55.3815 72.9942 54.219 70.1219C53.0564 67.2497 52.6481 61.7137 52.6481 61.7137C52.6481 61.7137 50.7632 51.6707 54.219 47.8426C57.6747 44.0144 63.7078 42.1965 63.7078 42.1965Z" fill="#8DAE3C" stroke="#333333" stroke-width="0.8"/>
    <path d="M59.9871 99.0891C57.9558 100.505 55.8747 101.504 53.8765 102.203C51.8126 102.924 49.8372 103.326 48.0962 103.535" stroke="white" stroke-width="1.2" stroke-linecap="round"/>
    <path d="M45.3649 103.73C43.5169 103.771 42.2042 103.612 41.7459 103.534C38.6168 103.002 36.1235 101.563 34.1843 99.7682C32.0313 97.7752 30.5613 95.3423 29.6621 93.2211C29.0484 91.7734 28.7891 89.9972 28.8841 88.2529C28.9536 86.9763 29.213 85.7167 29.6621 84.6156C30.6383 82.2226 32.4064 80.3347 34.419 79.151C35.9467 78.2525 37.6152 77.7598 39.1853 77.7598C41.4952 77.7598 43.8012 78.7456 45.2219 80.1734C47.424 82.3867 48.1095 84.6156 48.1095 87.3965" stroke="white" stroke-width="0.8" stroke-linecap="round"/>
    <path fill-rule="evenodd" clip-rule="evenodd" d="M52.2741 40.2C54.2575 40.2 55.8654 38.5882 55.8654 36.6C55.8654 34.6118 54.2575 33 52.2741 33C50.2906 33 48.6827 34.6118 48.6827 36.6C48.6827 38.5882 50.2906 40.2 52.2741 40.2Z" stroke="#333333" stroke-width="0.8"/>
    <path fill-rule="evenodd" clip-rule="evenodd" d="M63.8839 42.1199C63.8839 42.1199 65.9828 35.1453 55.3155 30.6305C44.6482 26.1156 39.8376 28.1141 39.2823 29.3723C38.727 30.6305 37.9827 29.4488 37.9827 30.6305C37.9827 31.8121 38.6619 38.2328 40.615 43.5567C42.5681 48.8805 43.9449 51.6664 48.0787 53.175C52.2124 54.6836 56.7815 50.5274 59.9836 47.6125C63.1856 44.6977 63.8839 42.1199 63.8839 42.1199Z" fill="#AAC157" stroke="#333333" stroke-width="0.8"/>
    <path d="M50.9269 30.9749C56.5189 32.8813 59.5399 35.2902 60.8091 37.8122C61.6179 39.4193 61.7205 40.4132 61.3981 41.6664" stroke="white" stroke-width="1.6" stroke-linecap="round"/>
    <path fill-rule="evenodd" clip-rule="evenodd" d="M52.2741 40.2C54.2575 40.2 55.8654 38.5882 55.8654 36.6C55.8654 34.6118 54.2575 33 52.2741 33C50.2906 33 48.6827 34.6118 48.6827 36.6C48.6827 38.5882 50.2906 40.2 52.2741 40.2Z" fill="#FFE48C" stroke="#333333" stroke-width="0.8"/>
    <path fill-rule="evenodd" clip-rule="evenodd" d="M51.875 36.2C52.7565 36.2 53.4711 35.4837 53.4711 34.6C53.4711 33.7163 52.7565 33 51.875 33C50.9934 33 50.2788 33.7163 50.2788 34.6C50.2788 35.4837 50.9934 36.2 51.875 36.2Z" stroke="#333333" stroke-width="0.8"/>
    <path fill-rule="evenodd" clip-rule="evenodd" d="M51.875 36.2C52.7565 36.2 53.4711 35.4837 53.4711 34.6C53.4711 33.7163 52.7565 33 51.875 33C50.9934 33 50.2788 33.7163 50.2788 34.6C50.2788 35.4837 50.9934 36.2 51.875 36.2Z" fill="#8DAE3C" stroke="#333333" stroke-width="0.8"/>
    <path d="M64.7789 47.5535C70.2709 51.0855 73.7173 56.9174 75.1182 65.0492C75.9217 69.7128 75.8073 74.1168 74.7751 78.2613C74.3656 79.9058 73.5173 81.9146 72.2302 84.2877" stroke="white" stroke-width="2.4" stroke-linecap="round"/>
    <path fill-rule="evenodd" clip-rule="evenodd" d="M61.4921 89.1474C61.4921 89.1474 61.9802 84.0005 60.7062 81.5351C59.4322 79.0697 56.8543 75.8297 53.3825 75.2955C49.9107 74.7612 42.9168 77.0379 42.9168 77.0379C42.9168 77.0379 41.3215 76.3631 38.7869 76.3658C35.0402 76.3697 31.8497 79.4304 32.4206 78.4801C33.4455 76.7745 35.2852 76.0615 34.0446 75.316C32.8041 74.5706 28.7168 79.2521 27.464 77.7393C26.2112 76.2265 26.1033 75.4055 29.5623 74.4547C33.0214 73.504 34.0173 72.6178 33.1555 72.1C32.2937 71.5822 26.4168 73.5366 26.2172 70.5571C26.0177 67.5775 32.4963 70.7914 32.4307 69.0431C32.3651 67.2948 28.8633 65.7345 30.3642 63.9217C31.8651 62.1088 33.822 64.4528 35.233 67.1671C36.644 69.8814 38.1291 72.0516 38.2157 70.3715C38.3023 68.6914 37.1829 63.3408 39.6223 64.8066C42.0617 66.2723 39.863 71.2167 41.3186 72.0914C42.7743 72.966 50.816 69.0198 55.9312 70.5255C61.0463 72.0312 66.6966 78.4437 66.6966 78.4437" fill="#8DAE3C"/>
    <path d="M61.4921 89.1474C61.4921 89.1474 61.9802 84.0005 60.7062 81.5351C59.4322 79.0697 56.8543 75.8297 53.3825 75.2955C49.9107 74.7612 42.9168 77.0379 42.9168 77.0379C42.9168 77.0379 41.3215 76.3631 38.7869 76.3658C35.0402 76.3697 31.8497 79.4304 32.4206 78.4801C33.4455 76.7745 35.2852 76.0615 34.0446 75.316C32.8041 74.5706 28.7168 79.2521 27.464 77.7393C26.2112 76.2265 26.1033 75.4055 29.5623 74.4547C33.0214 73.504 34.0173 72.6178 33.1555 72.1C32.2937 71.5822 26.4168 73.5366 26.2172 70.5571C26.0177 67.5775 32.4963 70.7914 32.4307 69.0431C32.3651 67.2948 28.8633 65.7345 30.3642 63.9217C31.8651 62.1088 33.822 64.4528 35.233 67.1671C36.644 69.8814 38.1291 72.0516 38.2157 70.3715C38.3023 68.6914 37.1829 63.3408 39.6223 64.8066C42.0617 66.2723 39.863 71.2167 41.3186 72.0914C42.7743 72.966 50.816 69.0198 55.9312 70.5255C61.0463 72.0312 66.6966 78.4437 66.6966 78.4437" stroke="#333333" stroke-width="0.8" stroke-linecap="round"/>
    <path fill-rule="evenodd" clip-rule="evenodd" d="M57.2279 53.9257C57.2279 53.9257 50.5209 52.36 48.4638 53.2867C46.4067 54.2135 43.2148 55.3851 40.7669 53.9311C38.3189 52.4771 35.0996 47.3905 35.0996 47.3905C35.0996 47.3905 33.5638 43.2903 33.2625 40.7769C32.9612 38.2634 30.6584 38.4812 30.6494 41.1115C30.6438 42.7662 31.7948 44.9689 30.6369 44.8062C29.479 44.6435 28.529 39.3497 26.5971 39.6524C24.6652 39.955 26.0004 42.1795 27.6821 44.5824C29.3638 46.9854 23.1253 44.3363 22.4117 45.8656C21.6982 47.395 22.573 48.2744 25.3918 48.051C28.2106 47.8276 27.9783 48.4163 27.1747 49.5423C26.3711 50.6683 24.1663 51.4051 26.1253 52.7165C28.0842 54.0279 30.2412 50.8385 31.5999 51.0295C32.9585 51.2204 35.4329 56.0203 39.928 58.3203C41.6483 59.2005 45.5484 58.9387 48.4618 59.4408C50.6234 59.8134 54.3487 61.1993 54.3487 61.1993" fill="#8DAE3C"/>
    <path d="M57.2279 53.9257C57.2279 53.9257 50.5209 52.36 48.4638 53.2867C46.4067 54.2135 43.2148 55.3851 40.7669 53.9311C38.3189 52.4771 35.0996 47.3905 35.0996 47.3905C35.0996 47.3905 33.5638 43.2903 33.2625 40.7769C32.9612 38.2634 30.6584 38.4812 30.6494 41.1115C30.6438 42.7662 31.7948 44.9689 30.6369 44.8062C29.479 44.6435 28.529 39.3497 26.5971 39.6524C24.6652 39.955 26.0004 42.1795 27.6821 44.5824C29.3638 46.9854 23.1253 44.3363 22.4117 45.8656C21.6982 47.395 22.573 48.2744 25.3918 48.051C28.2106 47.8276 27.9783 48.4163 27.1747 49.5423C26.3711 50.6683 24.1663 51.4051 26.1253 52.7165C28.0842 54.0279 30.2412 50.8385 31.5999 51.0295C32.9585 51.2204 35.4329 56.0203 39.928 58.3203C41.6483 59.2005 45.5484 58.9387 48.4618 59.4408C50.6234 59.8134 54.3487 61.1993 54.3487 61.1993" stroke="#333333" stroke-width="0.648" stroke-linecap="round"/>
    <path d="M38.9807 30.0359C38.9807 30.0359 42.1703 30.8695 43.5163 32.9274C44.4414 34.3417 45.6109 37.2257 46.7222 39.2409C47.2278 40.1577 47.7213 40.8947 48.1742 41.2317" stroke="#333333" stroke-width="0.8" stroke-linecap="round"/>
    <path d="M50.8181 42.5729C49.0702 42.571 48.2192 43.2756 48.2192 43.2756" stroke="#333333" stroke-width="0.8" stroke-linecap="round"/>
    <path fill-rule="evenodd" clip-rule="evenodd" d="M17.5635 23.7473C18.5268 22.8309 14.8521 16.4289 10.9587 13.6754C7.06536 10.9219 2.33301 11.3816 2.33301 11.3816C2.33301 11.3816 3.79043 16.2801 9.15836 20.0137C14.5263 23.7473 16.6002 24.6637 17.5635 23.7473Z" fill="#8DAE3C" stroke="#333333" stroke-width="0.8"/>
    <path fill-rule="evenodd" clip-rule="evenodd" d="M15.7464 26.991C15.7464 26.991 14.2134 24.5629 8.37707 24.5629C2.54074 24.5629 0.522949 26.991 0.522949 26.991C0.522949 26.991 2.13937 29.6578 8.37707 29.6578C14.6148 29.6578 15.7464 26.991 15.7464 26.991Z" fill="#8DAE3C" stroke="#333333" stroke-width="0.8"/>
    <path fill-rule="evenodd" clip-rule="evenodd" d="M18.044 28.9816C18.044 28.9816 14.9132 30.3285 13.0875 32.7594C11.2619 35.1902 11.8148 40.3867 11.8148 40.3867C11.8148 40.3867 16.0141 37.8405 17.1598 34.6842C18.3054 31.5278 18.044 28.9816 18.044 28.9816Z" fill="#8DAE3C" stroke="#333333" stroke-width="0.8"/>
    <path fill-rule="evenodd" clip-rule="evenodd" d="M30.9135 117.291C32.0811 117.926 30.1886 125.061 27.1405 128.729C24.0925 132.396 19.4024 133.177 19.4024 133.177C19.4024 133.177 19.5424 128.068 23.7611 123.072C27.9797 118.077 29.7458 116.655 30.9135 117.291Z" fill="#8DAE3C" stroke="#333333" stroke-width="0.8"/>
    <path fill-rule="evenodd" clip-rule="evenodd" d="M28.3187 114.628C28.3187 114.628 27.4664 117.37 21.8289 118.88C16.1915 120.391 13.614 118.568 13.614 118.568C13.614 118.568 14.4851 115.573 20.5103 113.959C26.5354 112.345 28.3187 114.628 28.3187 114.628Z" fill="#8DAE3C" stroke="#333333" stroke-width="0.8"/>
    <path fill-rule="evenodd" clip-rule="evenodd" d="M30.0229 112.11C30.0229 112.11 26.6502 111.62 24.2576 109.744C21.865 107.868 21.0542 102.706 21.0542 102.706C21.0542 102.706 25.7693 104.079 27.6929 106.831C29.6165 109.583 30.0229 112.11 30.0229 112.11Z" fill="#8DAE3C" stroke="#333333" stroke-width="0.8"/>
    <path d="M70.8145 87.3965C70.8145 87.3965 68.8002 90.138 67.8258 91.3471C66.7654 92.6631 64.9856 94.6563 62.7998 96.7465" stroke="white" stroke-width="1.6" stroke-linecap="round"/>
    <path d="M41.9275 86.4886C41.9275 86.4886 41.1825 85.4664 40.6366 85.3074C38.8576 84.7894 37.1989 85.9448 36.7228 88.1285C36.1227 90.8813 38.7913 92.879 40.6366 93.0769C42.027 93.226 44.0438 92.879 44.6335 92.489" stroke="white" stroke-width="0.5" stroke-linecap="round"/>
</svg>
